<svg width="30" height="24" viewBox="0 0 30 24" fill="none" xmlns="http://www.w3.org/2000/svg">
<path d="M26.4515 5.99556C26.471 6.25806 26.471 6.51906 26.471 6.78006C26.471 14.7676 20.3915 23.9716 9.28095 23.9716C5.85795 23.9716 2.67795 22.9801 0.00195312 21.2581C0.487953 21.3136 0.955953 21.3331 1.46145 21.3331C4.28595 21.3331 6.88545 20.3791 8.96295 18.7516C6.30645 18.6961 4.08045 16.9561 3.31245 14.5621C3.68595 14.6176 4.06095 14.6551 4.45395 14.6551C4.99545 14.6551 5.53995 14.5801 6.04545 14.4496C3.27495 13.8886 1.20045 11.4571 1.20045 8.52006V8.44506C2.00595 8.89356 2.94045 9.17406 3.93045 9.21156C2.30295 8.12856 1.23645 6.27606 1.23645 4.18056C1.23645 3.05856 1.53495 2.02956 2.05845 1.13256C5.03295 4.79706 9.50445 7.19256 14.5175 7.45506C14.4245 7.00506 14.3675 6.53856 14.3675 6.07056C14.3675 2.74056 17.0615 0.0285645 20.4095 0.0285645C22.1495 0.0285645 23.72 0.757564 24.824 1.93656C26.189 1.67406 27.497 1.16856 28.658 0.477064C28.2095 1.87956 27.254 3.05856 26.0015 3.80706C27.218 3.67506 28.397 3.33906 29.48 2.87106C28.658 4.06806 27.6305 5.13456 26.4515 5.99556Z" fill="white"/>
</svg>
