<svg width="27" height="28" viewBox="0 0 27 28" fill="none" xmlns="http://www.w3.org/2000/svg">
<path fill-rule="evenodd" clip-rule="evenodd" d="M20.252 0.5H6.75195C3.03979 0.5 0.00195312 3.5365 0.00195312 7.25V20.75C0.00195312 24.4622 3.03979 27.5 6.75195 27.5H20.252C23.9641 27.5 27.002 24.4622 27.002 20.75V7.25C27.002 3.5365 23.9641 0.5 20.252 0.5ZM13.5021 19.6246C10.395 19.6246 7.87695 17.1055 7.87695 13.9998C7.87695 10.8928 10.395 8.37469 13.5021 8.37469C16.6077 8.37469 19.1272 10.8928 19.1272 13.9998C19.1272 17.1055 16.6077 19.6246 13.5021 19.6246ZM19.127 6.68719C19.127 7.61902 19.8816 8.37469 20.8145 8.37469C21.7473 8.37469 22.502 7.61902 22.502 6.68719C22.502 5.75537 21.7473 4.99969 20.8145 4.99969C19.8816 4.99969 19.127 5.75537 19.127 6.68719Z" fill="white"/>
</svg>
